<svg xmlns="http://www.w3.org/2000/svg" viewBox="0 0 1200 700" role="img" aria-label="Disc golf party illustration with a plumber-inspired character">
  <defs>
    <linearGradient id="sky" x1="0" x2="0" y1="0" y2="1">
      <stop offset="0%" stop-color="#7ec9ff"/>
      <stop offset="100%" stop-color="#dff4ff"/>
    </linearGradient>
    <linearGradient id="ground" x1="0" x2="1" y1="0" y2="0">
      <stop offset="0%" stop-color="#4db454"/>
      <stop offset="100%" stop-color="#2f9e44"/>
    </linearGradient>
    <filter id="soft" x="-20%" y="-20%" width="140%" height="140%">
      <feGaussianBlur stdDeviation="4"/>
    </filter>
  </defs>

  <rect width="1200" height="700" fill="url(#sky)"/>

  <circle cx="1020" cy="95" r="56" fill="#ffe36d"/>
  <g fill="#ffffff" opacity="0.95">
    <ellipse cx="170" cy="120" rx="74" ry="28"/>
    <ellipse cx="230" cy="120" rx="56" ry="24"/>
    <ellipse cx="200" cy="98" rx="52" ry="22"/>

    <ellipse cx="710" cy="150" rx="80" ry="30"/>
    <ellipse cx="785" cy="150" rx="60" ry="24"/>
    <ellipse cx="750" cy="127" rx="54" ry="22"/>
  </g>

  <path d="M0,520 C180,470 320,500 520,470 C760,435 980,485 1200,455 L1200,700 L0,700 Z" fill="#7ed67c"/>
  <path d="M0,560 C180,525 330,555 560,530 C780,505 970,550 1200,530 L1200,700 L0,700 Z" fill="url(#ground)"/>

  <g transform="translate(815,255)">
    <rect x="70" y="115" width="10" height="230" fill="#777"/>
    <ellipse cx="75" cy="112" rx="95" ry="22" fill="#cfd8dc"/>
    <ellipse cx="75" cy="122" rx="87" ry="19" fill="none" stroke="#8a9ba8" stroke-width="4"/>
    <g stroke="#8a9ba8" stroke-width="3">
      <line x1="-6" y1="122" x2="18" y2="276"/>
      <line x1="18" y1="122" x2="34" y2="288"/>
      <line x1="34" y1="122" x2="48" y2="298"/>
      <line x1="48" y1="122" x2="62" y2="304"/>
      <line x1="62" y1="122" x2="75" y2="307"/>
      <line x1="75" y1="122" x2="88" y2="304"/>
      <line x1="88" y1="122" x2="102" y2="298"/>
      <line x1="102" y1="122" x2="116" y2="288"/>
      <line x1="116" y1="122" x2="132" y2="276"/>
      <line x1="132" y1="122" x2="156" y2="262"/>
    </g>
  </g>

  <g transform="translate(250,240)">
    <ellipse cx="220" cy="330" rx="118" ry="26" fill="#000" opacity="0.14" filter="url(#soft)"/>

    <circle cx="180" cy="98" r="48" fill="#f7c79a"/>
    <ellipse cx="180" cy="120" rx="25" ry="13" fill="#4a2f22"/>
    <circle cx="165" cy="95" r="6" fill="#262626"/>
    <circle cx="195" cy="95" r="6" fill="#262626"/>

    <path d="M124,77 C132,40 166,26 198,34 C220,40 236,52 236,76 L236,94 L124,94 Z" fill="#e53d35"/>
    <circle cx="222" cy="68" r="8" fill="#ffffff"/>

    <rect x="150" y="145" width="62" height="82" rx="20" fill="#2979ff"/>
    <rect x="154" y="169" width="54" height="45" rx="8" fill="#4c95ff"/>
    <circle cx="172" cy="188" r="4" fill="#ffd54f"/>
    <circle cx="190" cy="188" r="4" fill="#ffd54f"/>

    <rect x="117" y="153" width="36" height="82" rx="16" fill="#e53d35"/>
    <rect x="210" y="153" width="36" height="82" rx="16" fill="#e53d35"/>

    <rect x="114" y="230" width="42" height="24" rx="10" fill="#ffffff"/>
    <rect x="206" y="230" width="42" height="24" rx="10" fill="#ffffff"/>

    <rect x="152" y="228" width="26" height="90" rx="10" fill="#2979ff"/>
    <rect x="184" y="228" width="26" height="90" rx="10" fill="#2979ff"/>

    <rect x="146" y="313" width="36" height="18" rx="8" fill="#7a4b2e"/>
    <rect x="178" y="313" width="36" height="18" rx="8" fill="#7a4b2e"/>

    <ellipse cx="262" cy="184" rx="44" ry="20" fill="#ff5656" stroke="#b92727" stroke-width="5" transform="rotate(-12 262 184)"/>
    <ellipse cx="262" cy="184" rx="10" ry="4" fill="#ffffff" opacity="0.8" transform="rotate(-12 262 184)"/>
  </g>

  <g transform="translate(82,318)">
    <rect x="0" y="0" width="72" height="70" rx="10" fill="#ff4d4d"/>
    <circle cx="18" cy="23" r="10" fill="#ffffff"/>
    <circle cx="54" cy="23" r="10" fill="#ffffff"/>
    <rect x="22" y="70" width="28" height="16" fill="#f5e9d6"/>
  </g>

  <g transform="translate(1020,492)">
    <polygon points="30,0 39,22 63,22 44,36 51,58 30,45 9,58 16,36 -3,22 21,22" fill="#ffd54f" stroke="#d9a41f" stroke-width="3"/>
  </g>

  <text x="600" y="66" text-anchor="middle" font-family="Trebuchet MS, Verdana, sans-serif" font-size="42" font-weight="700" fill="#ffffff" stroke="#1f2f55" stroke-width="3">Disc Golf Party Time</text>
</svg>
